Coordinates
version=1
nRows=60
nColumns=12
inDegrees=yes

Units are S.I. units (second, meters, Newtons, ...)
Angles are in degrees

endheader
time	SC_y	SC_z	SC_x	AC_y	AC_z	AC_x	GH_y	GH_z	GH_yy	EL_x	PS_y
       0.0              -46.98          8.992          5.237          56.89         -11.68          11.53          51.85          -12.5          30.22          131.2          45.51
   0.01077              -46.98          8.991          5.247          56.89         -11.68          11.53          51.83          -12.5          30.21          131.2          45.51
   0.02154              -46.98          8.991          5.257          56.89         -11.68          11.53           51.8          -12.5          30.19          131.2           45.5
    0.0323              -46.97           8.99          5.267          56.88         -11.67          11.52          51.78          -12.5          30.18          131.1           45.5
   0.04307              -46.97           8.99          5.279          56.88         -11.67          11.52          51.75          -12.5          30.16          131.1          45.49
   0.05384              -46.96          8.989          5.291          56.88         -11.67          11.51          51.72          -12.5          30.14          131.1          45.48
   0.06461              -46.96          8.988          5.304          56.88         -11.66          11.51          51.68          -12.5          30.12          131.1          45.48
   0.07538              -46.95          8.987          5.318          56.88         -11.66           11.5          51.65          -12.5           30.1          131.0          45.47
   0.08615              -46.94          8.987          5.333          56.88         -11.66           11.5          51.61          -12.5          30.08          131.0          45.46
   0.09691              -46.94          8.986          5.349          56.88         -11.65          11.49          51.57          -12.5          30.05          131.0          45.45
    0.1077              -46.93          8.985          5.366          56.88         -11.65          11.48          51.52         -12.51          30.02          131.0          45.44
    0.1185              -46.92          8.984          5.384          56.88         -11.65          11.48          51.48         -12.51           30.0          130.9          45.43
    0.1292              -46.91          8.983          5.404          56.88         -11.64          11.47          51.43         -12.51          29.96          130.9          45.42
      0.14              -46.91          8.982          5.425          56.88         -11.64          11.46          51.37         -12.51          29.93          130.9          45.41
    0.1508               -46.9           8.98          5.449          56.88         -11.63          11.45          51.31         -12.51          29.89          130.8          45.39
    0.1615              -46.88          8.979          5.474          56.88         -11.62          11.44          51.25         -12.51          29.86          130.8          45.38
    0.1723              -46.87          8.977          5.501          56.88         -11.62          11.43          51.18         -12.51          29.81          130.7          45.36
    0.1831              -46.86          8.976          5.531          56.88         -11.61          11.42           51.1         -12.51          29.77          130.7          45.35
    0.1938              -46.85          8.974          5.564          56.88          -11.6          11.41          51.02         -12.51          29.72          130.6          45.33
    0.2046              -46.83          8.972          5.599          56.88         -11.59           11.4          50.93         -12.51          29.66          130.5          45.31
    0.2154              -46.82           8.97          5.638          56.88         -11.59          11.38          50.83         -12.51           29.6          130.5          45.29
    0.2261               -46.8          8.968          5.681          56.88         -11.58          11.36          50.71         -12.51          29.53          130.4          45.26
    0.2369              -46.78          8.965          5.729          56.88         -11.56          11.35          50.59         -12.51          29.46          130.3          45.23
    0.2477              -46.76          8.962          5.782          56.88         -11.55          11.33          50.46         -12.51          29.38          130.2           45.2
    0.2584              -46.73          8.959           5.84          56.88         -11.54           11.3          50.31         -12.51          29.28          130.1          45.17
    0.2692               -46.7          8.955          5.905          56.88         -11.52          11.28          50.14         -12.51          29.18          130.0          45.13
      0.28              -46.67          8.951          5.979          56.88          -11.5          11.25          49.95         -12.51          29.07          129.9          45.09
    0.2907              -46.64          8.947          6.061          56.88         -11.48          11.22          49.74         -12.52          28.94          129.7          45.05
    0.3015               -46.6          8.942          6.154          56.88         -11.46          11.19           49.5         -12.52          28.79          129.6          44.99
    0.3123              -46.56          8.936           6.26          56.88         -11.44          11.15          49.23         -12.52          28.63          129.4          44.93
     0.323               -46.5          8.929           6.38          56.88         -11.41           11.1          48.92         -12.52          28.44          129.2          44.86
    0.3338              -46.45          8.921          6.519          56.88         -11.38          11.05          48.56         -12.52          28.23          128.9          44.78
    0.3446              -46.38          8.913          6.679          56.88         -11.34          10.99          48.15         -12.53          27.98          128.6          44.69
    0.3554               -46.3          8.903          6.864          56.88         -11.29          10.92          47.68         -12.53          27.69          128.3          44.59
    0.3661              -46.21          8.891          7.081          56.87         -11.24          10.83          47.12         -12.53          27.35          127.9          44.46
    0.3769               -46.1          8.877          7.338          56.87         -11.18          10.74          46.46         -12.54          26.95          127.5          44.32
    0.3877              -45.98           8.86          7.642          56.87         -11.11          10.62          45.68         -12.54          26.47          126.9          44.14
    0.3984              -45.82           8.84          8.007          56.87         -11.02          10.48          44.74         -12.55          25.91          126.3          43.94
    0.4092              -45.64          8.816          8.448          56.87         -10.92          10.32          43.61         -12.55          25.22          125.5          43.68
      0.42              -45.41          8.786          8.987          56.86         -10.79          10.11          42.23         -12.56          24.38          124.5          43.38
    0.4307              -45.13          8.749          9.652          56.86         -10.63          9.859          40.52         -12.57          23.34          123.4           43.0
    0.4415              -44.78          8.704          10.48          56.85         -10.44          9.544          38.39         -12.59          22.05          121.9          42.53
    0.4523              -44.35          8.646          11.53          56.85         -10.19          9.147          35.71          -12.6          20.42          120.0          41.93
     0.463              -43.79          8.573          12.86          56.84         -9.872          8.643          32.29         -12.62          18.34          117.7          41.17
    0.4738              -43.08           8.48          14.56          56.83         -9.469          7.998          27.93         -12.65          15.69          114.7           40.2
    0.4846              -42.16           8.36          16.74          56.81         -8.951           7.17          22.32         -12.69          12.29          110.8          38.96
    0.4953              -40.99          8.207          19.53           56.8         -8.289          6.113          15.17         -12.73          7.941          105.8          37.37
    0.5061              -39.52          8.014          23.03          56.78         -7.457          4.783          6.167         -12.79          2.475          99.62          35.37
    0.5169              -37.73           7.78           27.3          56.75         -6.444          3.162           -4.8         -12.86         -4.186          92.04          32.94
    0.5276              -35.65          7.507          32.26          56.72         -5.268          1.284         -17.51         -12.93         -11.91          83.26          30.12
    0.5384               -33.4          7.213          37.62          56.69         -3.996        -0.7499         -31.28         -13.02         -20.27          73.75          27.06
    0.5492              -31.15          6.918          42.98          56.65         -2.724         -2.784         -45.04         -13.11         -28.63          64.24          24.01
      0.56              -29.08          6.646          47.93          56.62         -1.549         -4.662         -57.75         -13.18         -36.35          55.46          21.18
    0.5707              -27.29          6.412           52.2          56.59        -0.5349         -6.283         -68.72         -13.25         -43.01          47.88          18.75
    0.5815              -25.82          6.219          55.71          56.57         0.2969         -7.612         -77.72         -13.31         -48.48          41.66          16.75
    0.5923              -24.65          6.066           58.5          56.56         0.9585          -8.67         -84.88         -13.35         -52.82          36.71          15.16
     0.603              -23.73          5.946          60.68          56.54          1.476         -9.498         -90.48         -13.39         -56.23          32.84          13.92
    0.6138              -23.02          5.853          62.38          56.53           1.88         -10.14         -94.85         -13.42         -58.88          29.83          12.95
    0.6246              -22.46           5.78          63.71          56.52          2.195         -10.65         -98.26         -13.44         -60.95          27.47          12.19
    0.6353              -22.02          5.722          64.75          56.52          2.443         -11.04         -100.9         -13.45         -62.58          25.62           11.6
